#N canvas 728 210 511 547 10;
#X obj 273 162 midiout;
#X obj 48 67 vsl 15 128 0 127 0 0 empty empty empty 0 -9 0 10 -262144
-1 -1 5500 1;
#X obj 116 70 vsl 15 128 0 127 0 0 empty empty empty 0 -9 0 10 -262144
-1 -1 3100 1;
#X obj 189 69 vsl 15 128 0 127 0 0 empty empty empty 0 -9 0 10 -262144
-1 -1 0 1;
#X floatatom 191 222 5 0 0 0 - - -;
#X floatatom 110 222 5 0 0 0 - - -;
#X floatatom 41 225 5 0 0 0 - - -;
#X obj 28 268 ctlout 100;
#X obj 106 267 ctlout 101;
#X obj 191 266 ctlout 102;
#X obj 260 109 midiin;
#X obj 143 335 notein;
#X floatatom 93 373 5 0 0 0 - - -;
#X floatatom 147 374 5 0 0 0 - - -;
#X floatatom 206 375 5 0 0 0 - - -;
#X obj 104 442 noteout;
#X connect 1 0 6 0;
#X connect 2 0 5 0;
#X connect 3 0 4 0;
#X connect 4 0 9 0;
#X connect 5 0 8 0;
#X connect 6 0 7 0;
#X connect 10 1 0 0;
#X connect 11 0 12 0;
#X connect 11 1 13 0;
#X connect 11 2 14 0;
#X connect 12 0 15 0;
#X connect 13 0 15 1;
#X connect 14 0 15 2;
